<?xml version="1.0" standalone="no"?>
<!DOCTYPE svg PUBLIC "-//W3C//DTD SVG 20010904//EN"
 "http://www.w3.org/TR/2001/REC-SVG-20010904/DTD/svg10.dtd">
<svg version="1.0" xmlns="http://www.w3.org/2000/svg"
 width="128.000000pt" height="128.000000pt" viewBox="0 0 128.000000 128.000000"
 preserveAspectRatio="xMidYMid meet">
<g transform="translate(0.000000,128.000000) scale(0.100000,-0.100000)"
fill="#fff" stroke="none">
<path d="M485 1245 c-218 -48 -387 -189 -452 -378 -43 -123 -33 -267 28 -388
80 -160 280 -288 489 -315 45 -6 66 -16 115 -54 121 -96 168 -110 233 -70 39
24 57 63 67 141 6 51 10 57 50 82 162 103 257 268 257 447 -1 207 -113 376
-316 475 -145 71 -321 93 -471 60z m299 -130 c129 -34 253 -121 310 -220 112
-190 36 -420 -178 -540 l-64 -35 -7 -73 c-3 -40 -10 -78 -14 -85 -5 -9 -35 9
-97 58 -83 65 -92 70 -139 70 -163 1 -352 114 -419 251 -78 161 -48 317 84
443 101 96 224 144 375 145 51 1 116 -6 149 -14z"/>
<path d="M396 831 c-4 -5 -3 -16 0 -25 5 -14 36 -16 244 -16 133 0 241 4 244
9 4 5 3 16 0 25 -5 14 -36 16 -244 16 -133 0 -241 -4 -244 -9z"/>
<path d="M400 675 c-10 -12 -10 -18 0 -30 19 -22 461 -22 480 0 10 12 10 18 0
30 -10 13 -50 15 -240 15 -190 0 -230 -2 -240 -15z"/>
<path d="M405 526 c-16 -12 -17 -16 -6 -30 19 -23 289 -24 297 -1 4 8 1 22 -6
30 -17 21 -257 22 -285 1z"/>
</g>
</svg>
